<svg width="25" height="22" viewBox="0 0 25 22" fill="none" xmlns="http://www.w3.org/2000/svg">
<path fill-rule="evenodd" clip-rule="evenodd" d="M0.589844 1.61949C0.589844 1.06721 1.03756 0.619492 1.58984 0.619492H6.28962C7.59211 0.619492 8.64799 1.67537 8.64799 2.97786V9.92191L20.9766 9.92191L18.9465 7.99632C18.5458 7.61624 18.5291 6.9833 18.9092 6.5826C19.2893 6.1819 19.9222 6.16518 20.3229 6.54525L23.7852 9.82938C24.5377 10.5431 24.4697 11.7615 23.6424 12.3871L19.6969 15.3705C19.2564 15.7036 18.6292 15.6165 18.2961 15.176C17.963 14.7355 18.0501 14.1083 18.4906 13.7752L20.9416 11.9219L8.64799 11.9219V19.3289C8.64799 20.6314 7.59211 21.6873 6.28962 21.6873H1.58984C1.03756 21.6873 0.589844 21.2396 0.589844 20.6873C0.589844 20.135 1.03756 19.6873 1.58984 19.6873H6.28962C6.48754 19.6873 6.64799 19.5269 6.64799 19.3289V2.97786C6.64799 2.77994 6.48754 2.61949 6.28962 2.61949H1.58984C1.03756 2.61949 0.589844 2.17178 0.589844 1.61949Z" fill="white"/>
</svg>
