<svg width="111" height="37" viewBox="0 0 111 37" fill="none" xmlns="http://www.w3.org/2000/svg">
<path fill-rule="evenodd" clip-rule="evenodd" d="M38.5274 9.05475C38.8905 9.05475 39.1786 8.97359 39.3917 8.81513C39.6048 8.65667 39.7627 8.48662 39.8653 8.30497V7.41991C39.5772 7.39286 39.3009 7.389 39.0365 7.40445C38.7721 7.42378 38.5392 7.46243 38.334 7.52813C38.1287 7.58997 37.9669 7.68272 37.8446 7.80254C37.7222 7.92235 37.663 8.06921 37.663 8.25086C37.663 8.50594 37.738 8.70305 37.8919 8.84605C38.0459 8.98518 38.255 9.05861 38.5274 9.05861M36.2304 3.98405C36.6014 3.82173 37.0434 3.69033 37.5525 3.5937C38.0617 3.49708 38.5984 3.4507 39.1549 3.4507C39.6364 3.4507 40.0429 3.50868 40.3665 3.62076C40.6901 3.73284 40.9506 3.89516 41.1401 4.10387C41.3295 4.31257 41.4637 4.56378 41.5426 4.85365C41.6215 5.14351 41.661 5.47203 41.661 5.83532C41.661 6.23727 41.6452 6.63921 41.6176 7.04116C41.59 7.44697 41.5742 7.84505 41.5702 8.2354C41.5663 8.62575 41.5781 9.00451 41.6058 9.37553C41.6334 9.74269 41.7044 10.0905 41.8149 10.419H40.3389L40.0468 9.47602H39.9758C39.7903 9.75815 39.5338 10.0016 39.2022 10.2065C38.8707 10.4113 38.4484 10.5118 37.9275 10.5118C37.6038 10.5118 37.3118 10.4654 37.0513 10.3688C36.7908 10.2722 36.5698 10.1369 36.3843 9.95913C36.1988 9.78134 36.0528 9.57264 35.9541 9.33302C35.8515 9.0934 35.8002 8.82286 35.8002 8.5214C35.8002 8.10399 35.8949 7.75229 36.0844 7.46243C36.2738 7.17643 36.5501 6.94454 36.9053 6.76675C37.2644 6.58897 37.6907 6.46529 38.1879 6.39959C38.6852 6.33002 39.2378 6.3107 39.8534 6.33775C39.9166 5.82759 39.8811 5.4643 39.7429 5.24013C39.6048 5.01597 39.293 4.90776 38.8115 4.90776C38.4484 4.90776 38.0656 4.94254 37.663 5.01597C37.2605 5.0894 36.929 5.18603 36.6685 5.30197L36.2383 3.98019L36.2304 3.98405ZM43.9067 7.5861V6.34548H44.7552C45.0788 6.34548 45.3472 6.28365 45.5564 6.15611C45.7655 6.02857 45.8682 5.86238 45.8682 5.64981C45.8682 5.40246 45.7734 5.22854 45.5879 5.12419C45.4025 5.01984 45.1183 4.96573 44.7394 4.96573C44.3605 4.96573 44.0566 5.01211 43.7764 5.101C43.4962 5.19376 43.2752 5.28651 43.1094 5.387L42.7187 4.03816C42.9989 3.88357 43.366 3.7483 43.8277 3.63622C44.2855 3.52414 44.7789 3.46616 45.2959 3.46616C46.0931 3.46616 46.693 3.61303 47.0877 3.90289C47.4823 4.19276 47.6797 4.61789 47.6797 5.17057C47.6797 5.32516 47.6599 5.48362 47.6165 5.64208C47.5731 5.80054 47.506 5.95513 47.4153 6.09813C47.3205 6.245 47.21 6.37254 47.0758 6.48848C46.9417 6.60056 46.7798 6.68946 46.5943 6.75516V6.80927C47.0877 6.91748 47.435 7.11073 47.6402 7.389C47.8454 7.66727 47.9481 8.03829 47.9481 8.50207C47.9481 8.79194 47.8889 9.06248 47.7665 9.3137C47.6442 9.56491 47.4626 9.78134 47.2179 9.96299C46.9732 10.1446 46.6614 10.2915 46.2905 10.3997C45.9195 10.5079 45.4774 10.562 44.9683 10.562C44.4592 10.562 44.0132 10.5079 43.6383 10.4036C43.2634 10.2992 42.9476 10.1794 42.699 10.0403L43.0897 8.6644C43.3028 8.78421 43.5594 8.87697 43.8633 8.9504C44.1632 9.02383 44.5026 9.05861 44.8736 9.05861C45.7182 9.05861 46.1405 8.7958 46.1405 8.26632C46.1405 8.03056 46.03 7.85664 45.8129 7.74843C45.5958 7.64021 45.1893 7.5861 44.5934 7.5861H43.9106H43.9067ZM51.4566 9.05861C51.8197 9.05861 52.1078 8.97745 52.321 8.81899C52.5341 8.66053 52.6919 8.49048 52.7946 8.30883V7.42378C52.5065 7.39672 52.2302 7.39286 51.9658 7.40832C51.7013 7.42764 51.4685 7.46629 51.2633 7.532C51.058 7.59383 50.8962 7.68659 50.7739 7.8064C50.6515 7.92621 50.5923 8.07308 50.5923 8.25472C50.5923 8.5098 50.6673 8.70691 50.8212 8.84991C50.9751 8.98905 51.1843 9.06248 51.4566 9.06248V9.05861ZM49.1597 3.98405C49.5307 3.82173 49.9727 3.69033 50.4818 3.5937C50.9909 3.49708 51.5277 3.4507 52.0842 3.4507C52.5657 3.4507 52.9722 3.50868 53.2958 3.62076C53.6194 3.73284 53.8799 3.89516 54.0693 4.10387C54.2588 4.31257 54.393 4.56378 54.4719 4.85365C54.5508 5.14351 54.5903 5.47203 54.5903 5.83532C54.5903 6.23727 54.5745 6.63921 54.5469 7.04116C54.5193 7.44697 54.5035 7.84505 54.4995 8.2354C54.4956 8.62575 54.5074 9.00451 54.535 9.37553C54.5627 9.74269 54.6337 10.0905 54.7442 10.419H53.2682L52.9761 9.47602H52.9051C52.7196 9.75815 52.463 10.0016 52.1315 10.2065C51.8 10.4113 51.3777 10.5118 50.8567 10.5118C50.5331 10.5118 50.2411 10.4654 49.9806 10.3688C49.7201 10.2722 49.4991 10.1369 49.3136 9.95913C49.1281 9.78134 48.9821 9.57264 48.8834 9.33302C48.7808 9.0934 48.7295 8.82286 48.7295 8.5214C48.7295 8.10399 48.8242 7.75229 49.0137 7.46243C49.2031 7.17643 49.4794 6.94454 49.8346 6.76675C50.1937 6.58897 50.6199 6.46529 51.1172 6.39959C51.6145 6.33002 52.167 6.3107 52.7827 6.33775C52.8459 5.82759 52.8103 5.4643 52.6722 5.24013C52.5341 5.01597 52.2223 4.90776 51.7408 4.90776C51.3777 4.90776 50.9949 4.94254 50.5923 5.01597C50.1898 5.0894 49.8582 5.18603 49.5978 5.30197L49.1676 3.98019L49.1597 3.98405ZM60.1906 7.72137H57.9213V10.4075H56.1098V3.58597H57.9213V6.15224H60.1906V3.58597H62.0021V10.4075H60.1906V7.72137ZM68.522 9.98618C68.2418 10.1872 67.9063 10.3379 67.5117 10.4422C67.117 10.5466 66.7105 10.6007 66.2922 10.6007C65.7357 10.6007 65.2621 10.5157 64.8793 10.3417C64.4925 10.1678 64.1807 9.92434 63.9399 9.61129C63.6992 9.29824 63.5255 8.91948 63.419 8.47116C63.3124 8.0267 63.2572 7.53586 63.2572 6.99864C63.2572 5.84305 63.5216 4.95413 64.0505 4.33189C64.5793 3.70965 65.3489 3.3966 66.3632 3.3966C66.8723 3.3966 67.2867 3.43911 67.5946 3.52027C67.9063 3.60143 68.1866 3.70579 68.4391 3.83333L68.009 5.27878C67.7958 5.1783 67.5827 5.101 67.3736 5.04689C67.1644 4.99278 66.9236 4.96573 66.6553 4.96573C66.154 4.96573 65.7712 5.12805 65.5147 5.44884C65.2542 5.77348 65.1239 6.28751 65.1239 6.99864C65.1239 7.28851 65.1555 7.55905 65.2226 7.80254C65.2858 8.04989 65.3844 8.26245 65.5147 8.4441C65.6449 8.62575 65.8146 8.76875 66.0238 8.8731C66.233 8.97745 66.4777 9.03156 66.7539 9.03156C67.0618 9.03156 67.3222 8.99291 67.5354 8.91561C67.7485 8.83832 67.9379 8.74556 68.1076 8.63734L68.526 9.98618H68.522ZM71.9201 7.5861H71.4307V10.4113H69.6192V3.58597H71.4307V6.49235L71.8609 6.30297L73.4909 3.58984H75.4287L73.7435 6.18316L73.0331 6.70105L73.8145 7.2344L75.6931 10.4113H73.6172L71.9162 7.5861H71.9201ZM80.6265 7.3001L80.6975 6.33002H80.6541L80.0542 7.32716L77.5757 10.4113H76.4351V3.58597H78.2466V6.83246L78.1637 7.76002H78.219L78.7913 6.78994L81.2974 3.58597H82.438V10.4075H80.6265V7.29624V7.3001ZM86.2741 0.803276C86.3373 1.15884 86.4478 1.40619 86.6017 1.55306C86.7556 1.69992 86.953 1.76949 87.1937 1.76949C87.4542 1.76949 87.6594 1.69606 87.8133 1.55306C87.9673 1.40619 88.0699 1.16271 88.1251 0.814871L89.5025 1.15498C89.392 1.7463 89.1157 2.18303 88.6816 2.4729C88.2435 2.75889 87.7344 2.90189 87.1503 2.90189C86.8622 2.90189 86.582 2.87098 86.3136 2.80527C86.0452 2.74344 85.8045 2.63908 85.5874 2.49995C85.3743 2.36081 85.1927 2.17917 85.0428 1.96273C84.8928 1.7463 84.7902 1.47576 84.7349 1.15884L86.2662 0.803276L86.2741 0.803276ZM88.2119 7.29624L88.283 6.32616H88.2396L87.6397 7.32329L85.1612 10.4075H84.0206V3.58597H85.8321V6.83246L85.7492 7.76002H85.8045L86.3767 6.78994L88.8829 3.58597H90.0235V10.4075H88.2119V7.29624V7.29624ZM30.3341 21.1286C30.4367 21.1286 30.5314 21.1208 30.6182 21.1092C30.7051 21.0938 30.7998 21.0783 30.9024 21.0629V16.8463C30.7248 16.8115 30.5433 16.7922 30.3578 16.7922C29.9315 16.7922 29.6039 16.9545 29.375 17.2753C29.1461 17.6 29.0356 18.1488 29.0356 18.9333C29.0356 19.6445 29.1382 20.1855 29.3474 20.5643C29.5566 20.9431 29.8842 21.1286 30.3301 21.1286H30.3341ZM33.0218 16.7922C32.927 16.7922 32.8481 16.7999 32.7771 16.8115C32.706 16.827 32.6231 16.8424 32.5205 16.8579V21.0861C32.5955 21.1054 32.6823 21.117 32.7771 21.1208C32.8757 21.1247 32.9783 21.1286 33.0889 21.1286C33.5348 21.1286 33.8624 20.9508 34.0716 20.5914C34.2807 20.2319 34.3834 19.6329 34.3834 18.7981C34.3834 18.0869 34.2807 17.5768 34.0755 17.2637C33.8703 16.9507 33.519 16.7922 33.0178 16.7922H33.0218ZM30.8195 22.4272C30.6617 22.4813 30.4959 22.5122 30.3262 22.5238C30.1525 22.5315 29.9986 22.5392 29.8605 22.5392C29.0159 22.5392 28.3647 22.2455 27.9108 21.6542C27.457 21.0629 27.2281 20.1585 27.2281 18.9411C27.2281 17.7236 27.4806 16.8965 27.9819 16.2936C28.4831 15.6946 29.2093 15.3931 30.1565 15.3931C30.417 15.3931 30.638 15.4124 30.8235 15.4472V12.7998H32.6074V15.4588C32.7731 15.4318 32.9231 15.4124 33.0533 15.4047C33.1836 15.397 33.3099 15.3893 33.4283 15.3893C34.3478 15.3893 35.0385 15.6559 35.5042 16.1854C35.9699 16.7188 36.1988 17.5884 36.1988 18.7981C36.1988 19.3701 36.1357 19.8879 36.0094 20.3479C35.8831 20.8078 35.7015 21.202 35.4608 21.5266C35.2201 21.8552 34.9241 22.1025 34.5767 22.2764C34.2294 22.4504 33.8269 22.5354 33.373 22.5354C33.2901 22.5354 33.1678 22.5276 33.002 22.5161C32.8402 22.5006 32.706 22.4774 32.6034 22.4426V25.0746H30.8195V22.4272V22.4272ZM40.3626 16.7535C39.889 16.7535 39.5377 16.8927 39.3127 17.171C39.0838 17.4492 38.9497 17.8202 38.9023 18.284H41.4913C41.5268 17.7932 41.4518 17.4144 41.2624 17.1516C41.073 16.8888 40.773 16.7574 40.3626 16.7574V16.7535ZM42.9516 21.7585C42.6714 21.975 42.2964 22.1605 41.8149 22.3112C41.3374 22.4619 40.8283 22.5354 40.2915 22.5354C39.1667 22.5354 38.3458 22.2146 37.8249 21.573C37.3039 20.9315 37.0434 20.0503 37.0434 18.9333C37.0434 17.7314 37.3355 16.8308 37.9196 16.2318C38.5037 15.6327 39.3246 15.3313 40.3862 15.3313C40.7375 15.3313 41.0809 15.3777 41.4163 15.4665C41.7518 15.5593 42.0478 15.7062 42.3083 15.9149C42.5687 16.1236 42.7779 16.4057 42.9358 16.7613C43.0937 17.1168 43.1726 17.5574 43.1726 18.0831C43.1726 18.2724 43.1607 18.4773 43.1371 18.6976C43.1134 18.914 43.0779 19.142 43.0345 19.3778H38.8549C38.8826 19.9498 39.0325 20.3827 39.3088 20.6725C39.5811 20.9624 40.0271 21.1092 40.6388 21.1092C41.0177 21.1092 41.3611 21.0513 41.661 20.9392C41.961 20.8271 42.1938 20.7112 42.3517 20.5914L42.9516 21.7508V21.7585ZM48.398 20.858V17.0241H46.9338C46.914 17.3526 46.8825 17.7004 46.8351 18.0676C46.7877 18.4348 46.7325 18.7942 46.6614 19.1382C46.5904 19.4821 46.5115 19.8068 46.4167 20.1082C46.322 20.4097 46.2234 20.6571 46.1089 20.858H48.394H48.398ZM51.2238 23.8997H49.9017L49.6925 22.346H45.0117L44.8026 23.8997H43.4804V20.7769H44.3013C44.3763 20.6764 44.471 20.5063 44.5855 20.2667C44.6999 20.0271 44.8183 19.6947 44.9328 19.2773C45.0473 18.8599 45.1499 18.342 45.2327 17.7236C45.3156 17.1052 45.359 16.3748 45.359 15.5284H50.2055V20.7807H51.2238V23.9035V23.8997ZM55.1941 16.7535C54.7205 16.7535 54.3693 16.8927 54.1443 17.171C53.9154 17.4492 53.7812 17.8202 53.7339 18.284H56.3229C56.3584 17.7932 56.2834 17.4144 56.094 17.1516C55.9045 16.8888 55.6046 16.7574 55.1941 16.7574V16.7535ZM57.7831 21.7585C57.5029 21.975 57.128 22.1605 56.6465 22.3112C56.169 22.4619 55.6598 22.5354 55.1231 22.5354C53.9983 22.5354 53.1774 22.2146 52.6564 21.573C52.1355 20.9315 51.875 20.0503 51.875 18.9333C51.875 17.7314 52.167 16.8308 52.7511 16.2318C53.3353 15.6327 54.1562 15.3313 55.2178 15.3313C55.5691 15.3313 55.9124 15.3777 56.2479 15.4665C56.5834 15.5593 56.8794 15.7062 57.1398 15.9149C57.4003 16.1236 57.6095 16.4057 57.7674 16.7613C57.9252 17.1168 58.0042 17.5574 58.0042 18.0831C58.0042 18.2724 57.9923 18.4773 57.9686 18.6976C57.945 18.914 57.9094 19.142 57.866 19.3778H53.6865C53.7141 19.9498 53.8641 20.3827 54.1404 20.6725C54.4127 20.9624 54.8587 21.1092 55.4704 21.1092C55.8493 21.1092 56.1926 21.0513 56.4926 20.9392C56.7925 20.8271 57.0254 20.7112 57.1833 20.5914L57.7831 21.7508V21.7585ZM62.3929 16.8347C62.0416 16.8347 61.7653 16.9197 61.5641 17.0937C61.3628 17.2676 61.2089 17.5265 61.0983 17.8705V20.7073C61.2286 20.8078 61.3707 20.8851 61.5246 20.9469C61.6785 21.0049 61.8798 21.0358 62.1324 21.0358C62.6533 21.0358 63.0441 20.858 63.3006 20.4986C63.5611 20.1392 63.6913 19.5478 63.6913 18.7169C63.6913 18.1178 63.5887 17.6541 63.3835 17.3255C63.1782 16.997 62.8507 16.8347 62.3929 16.8347V16.8347ZM59.2868 15.5245H60.609L60.8181 16.3439H60.8734C61.1141 15.9999 61.4022 15.7448 61.7298 15.5786C62.0613 15.4163 62.46 15.3313 62.9336 15.3313C63.8058 15.3313 64.4609 15.6018 64.899 16.1429C65.3371 16.684 65.5541 17.5536 65.5541 18.7555C65.5541 19.3391 65.4831 19.8609 65.345 20.3324C65.2068 20.8001 64.9977 21.1981 64.7253 21.5266C64.453 21.8552 64.1176 22.1025 63.7229 22.2764C63.3282 22.4504 62.8743 22.5354 62.3652 22.5354C62.0771 22.5354 61.8403 22.5161 61.6548 22.4735C61.4693 22.431 61.2838 22.3653 61.0983 22.2764V25.0746H59.2868V15.5245V15.5245ZM69.0667 20.9933C69.4298 20.9933 69.7179 20.9121 69.931 20.7537C70.1441 20.5952 70.302 20.4252 70.4046 20.2435V19.3585C70.1165 19.3314 69.8402 19.3275 69.5758 19.343C69.3114 19.3623 69.0785 19.401 68.8733 19.4667C68.6681 19.5285 68.5062 19.6213 68.3839 19.7411C68.2615 19.8609 68.2023 20.0078 68.2023 20.1894C68.2023 20.4445 68.2773 20.6416 68.4313 20.7846C68.5852 20.9237 68.7943 20.9972 69.0667 20.9972V20.9933ZM66.7697 15.9187C67.1407 15.7564 67.5827 15.625 68.0918 15.5284C68.601 15.4318 69.1377 15.3854 69.6942 15.3854C70.1757 15.3854 70.5822 15.4434 70.9058 15.5554C71.2294 15.6675 71.4899 15.8298 71.6794 16.0385C71.8688 16.2473 72.003 16.4985 72.0819 16.7883C72.1609 17.0782 72.2003 17.4067 72.2003 17.77C72.2003 18.172 72.1845 18.5739 72.1569 18.9758C72.1293 19.3817 72.1135 19.7797 72.1096 20.1701C72.1056 20.5604 72.1174 20.9392 72.1451 21.3102C72.1727 21.6774 72.2437 22.0252 72.3542 22.3537H70.8782L70.5861 21.4107H70.5151C70.3296 21.6928 70.0731 21.9363 69.7416 22.1412C69.41 22.346 68.9877 22.4465 68.4668 22.4465C68.1431 22.4465 67.8511 22.4001 67.5906 22.3035C67.3301 22.2069 67.1091 22.0716 66.9236 21.8938C66.7381 21.716 66.5921 21.5073 66.4934 21.2677C66.3908 21.0281 66.3395 20.7575 66.3395 20.4561C66.3395 20.0387 66.4342 19.687 66.6237 19.3971C66.8131 19.1111 67.0894 18.8792 67.4446 18.7014C67.8037 18.5237 68.23 18.4 68.7273 18.3343C69.2245 18.2647 69.7771 18.2454 70.3927 18.2724C70.4559 17.7623 70.4204 17.399 70.2822 17.1748C70.1441 16.9507 69.8323 16.8424 69.3508 16.8424C68.9877 16.8424 68.6049 16.8772 68.2023 16.9507C67.7998 17.0241 67.4683 17.1207 67.2078 17.2367L66.7776 15.9149L66.7697 15.9187ZM77.5086 17.0937H76.1312C76.0759 17.7391 76.0089 18.3807 75.9378 19.0184C75.8628 19.6561 75.7444 20.2242 75.5826 20.7305C75.4208 21.2368 75.1998 21.6426 74.9196 21.9595C74.6394 22.2726 74.2802 22.431 73.8342 22.431C73.2975 22.431 72.9147 22.3615 72.6937 22.2262L72.9147 20.7537C73.0646 20.8078 73.2028 20.8348 73.333 20.8348C73.5185 20.8348 73.6803 20.7575 73.8224 20.6029C73.9605 20.4484 74.0789 20.1701 74.1776 19.772C74.2763 19.3701 74.3552 18.829 74.4144 18.141C74.4736 17.4531 74.517 16.5835 74.5486 15.5284H79.328V22.3499H77.5165V17.0975L77.5086 17.0937ZM82.7024 17.9517C82.9234 17.9169 83.1523 17.8898 83.3773 17.8782C83.6062 17.8628 83.8114 17.8589 83.9969 17.8589C84.4784 17.8589 84.8889 17.913 85.2243 18.0174C85.5598 18.1217 85.8321 18.2686 86.0373 18.4618C86.2465 18.6512 86.3965 18.8792 86.4912 19.1382C86.5859 19.3971 86.6293 19.6754 86.6293 19.9768C86.6293 20.8039 86.3767 21.4223 85.8755 21.832C85.3743 22.2416 84.5258 22.4465 83.326 22.4465C82.7971 22.4465 82.3393 22.4388 81.9525 22.4194C81.5658 22.4001 81.2106 22.3769 80.8869 22.3499V15.5284H82.6985V17.9555L82.7024 17.9517ZM82.7024 20.858C82.9826 20.9121 83.247 20.9392 83.4957 20.9392C83.9417 20.9392 84.2653 20.8658 84.4626 20.715C84.6639 20.5643 84.7626 20.3324 84.7626 20.0116C84.7626 19.4203 84.3521 19.1266 83.5351 19.1266C83.2273 19.1266 82.951 19.1575 82.6985 19.2232V20.8619L82.7024 20.858ZM91.7995 19.6561H89.5301V22.3421H87.7186V15.5207H89.5301V18.0869H91.7995V15.5207H93.611V22.3421H91.7995V19.6561ZM101.591 15.5245H103.403V22.346H101.591V15.5245ZM97.0091 17.9517C97.2301 17.9169 97.459 17.8898 97.6839 17.8782C97.9129 17.8628 98.1181 17.8589 98.3036 17.8589C98.7772 17.8589 99.1718 17.913 99.4876 18.0174C99.8033 18.1217 100.06 18.2686 100.253 18.4618C100.447 18.6512 100.589 18.8792 100.672 19.1382C100.754 19.3971 100.798 19.6754 100.798 19.9768C100.798 20.3865 100.743 20.7459 100.632 21.0551C100.522 21.3643 100.34 21.6194 100.087 21.8242C99.8349 22.0291 99.5113 22.1837 99.1126 22.288C98.714 22.3924 98.2207 22.4465 97.6366 22.4465C97.1077 22.4465 96.6499 22.4388 96.2631 22.4194C95.8764 22.4001 95.5212 22.3769 95.1976 22.3499V15.5284H97.0091V17.9555V17.9517ZM97.0091 20.858C97.2893 20.9121 97.5537 20.9392 97.8023 20.9392C98.2207 20.9392 98.5127 20.8658 98.6785 20.715C98.8443 20.5643 98.9311 20.3324 98.9311 20.0116C98.9311 19.7218 98.8482 19.5015 98.6785 19.3507C98.5127 19.2 98.2325 19.1266 97.8418 19.1266C97.534 19.1266 97.2577 19.1575 97.0051 19.2232V20.8619L97.0091 20.858ZM107.247 12.7418C107.31 13.0974 107.42 13.3447 107.574 13.4916C107.728 13.6385 107.926 13.708 108.166 13.708C108.427 13.708 108.632 13.6346 108.786 13.4916C108.94 13.3447 109.042 13.1013 109.098 12.7534L110.475 13.0935C110.365 13.6848 110.088 14.1216 109.654 14.4114C109.216 14.6974 108.707 14.8404 108.123 14.8404C107.835 14.8404 107.555 14.8095 107.286 14.7438C107.018 14.682 106.777 14.5776 106.56 14.4385C106.347 14.2994 106.165 14.1177 106.015 13.9013C105.865 13.6849 105.763 13.4143 105.708 13.0974L107.239 12.7418H107.247ZM109.185 19.2348L109.256 18.2647H109.212L108.612 19.2618L106.134 22.346H104.993V15.5245H106.805V18.771L106.722 19.6986H106.777L107.349 18.7285L109.855 15.5245H110.996V22.346H109.185V19.2348V19.2348ZM29.4263 33.1328L29.6631 33.9328H29.7105L29.8921 33.1058L31.1195 29.8168H31.9009L30.2788 33.9019C30.1131 34.3271 29.967 34.6826 29.8447 34.9648C29.7184 35.2508 29.5921 35.4788 29.4658 35.6566C29.3356 35.8344 29.2014 35.958 29.0514 36.0353C28.9054 36.1088 28.7238 36.1474 28.5107 36.1474C28.3094 36.1474 28.1476 36.1319 28.0292 36.0972C27.9108 36.0624 27.7964 36.016 27.6938 35.9503L27.9227 35.3319C28.045 35.3976 28.1595 35.4401 28.2621 35.4595C28.3647 35.4788 28.4594 35.4865 28.5462 35.4865C28.7159 35.4865 28.862 35.4015 28.9764 35.2314C29.0909 35.0614 29.1935 34.8063 29.2803 34.4739L26.9044 29.8206H27.7845L29.4263 33.1367V33.1328ZM36.9329 33.2217H33.8506V36.1049H33.0889V29.8168H33.8506V32.557H36.9329V29.8168H37.6946V36.1049H36.9329V33.2217ZM43.5791 31.8458L43.6343 31.127H43.5988L43.2042 31.8651L40.106 36.1049H39.6561V29.8168H40.4178V34.1261L40.3547 34.8372H40.3902L40.7927 34.099L43.8909 29.8168H44.3408V36.1049H43.5791V31.8458V31.8458ZM47.5376 32.584C47.6402 32.584 47.7665 32.584 47.9125 32.5763C48.0586 32.5685 48.1809 32.5608 48.2796 32.5492C48.4256 32.5028 48.5637 32.4449 48.694 32.3753C48.8242 32.3057 48.9387 32.2246 49.0373 32.1318C49.1399 32.0391 49.2189 31.9308 49.2741 31.8072C49.3333 31.6835 49.361 31.5521 49.361 31.4091C49.361 31.212 49.3215 31.0497 49.2465 30.9183C49.1715 30.7907 49.0689 30.6864 48.9387 30.6091C48.8084 30.5318 48.6624 30.4777 48.4966 30.4429C48.3309 30.412 48.1651 30.3926 47.9915 30.3926C47.7902 30.3926 47.6047 30.3965 47.435 30.4042C47.2653 30.412 47.139 30.4274 47.0561 30.4429V32.5801H47.5337L47.5376 32.584ZM48.0428 35.529C48.2401 35.529 48.4295 35.5058 48.6111 35.4633C48.7926 35.4208 48.9584 35.3474 49.0965 35.2469C49.2386 35.1464 49.3491 35.0266 49.432 34.8836C49.5149 34.7406 49.5543 34.5705 49.5543 34.3734C49.5543 34.13 49.503 33.929 49.4044 33.7821C49.3018 33.6314 49.1715 33.5154 49.0097 33.4304C48.8479 33.3454 48.6663 33.2913 48.4651 33.2604C48.2638 33.2294 48.0625 33.214 47.8612 33.214H47.064V35.4672C47.1074 35.4788 47.1666 35.4865 47.2455 35.4942C47.3245 35.502 47.4113 35.5058 47.5021 35.5136C47.5929 35.5213 47.6876 35.5252 47.7862 35.5252C47.8849 35.5252 47.9678 35.529 48.0428 35.529V35.529ZM50.17 31.2545C50.17 31.4052 50.1463 31.556 50.095 31.7144C50.0477 31.869 49.9727 32.0159 49.874 32.1511C49.7754 32.2864 49.6491 32.4024 49.4991 32.5067C49.3452 32.6072 49.1676 32.6845 48.9584 32.7386V32.7734C49.1399 32.8043 49.3175 32.8545 49.4873 32.9241C49.657 32.9975 49.803 33.0942 49.9332 33.2217C50.0635 33.3493 50.1661 33.5 50.245 33.6816C50.3239 33.8594 50.3634 34.072 50.3634 34.3193C50.3634 34.644 50.2963 34.9222 50.1582 35.158C50.0201 35.3938 49.8385 35.587 49.6175 35.7377C49.3925 35.8885 49.1399 35.9967 48.8518 36.0701C48.5637 36.1435 48.2717 36.1783 47.9717 36.1783H47.6047C47.4626 36.1783 47.3166 36.1745 47.1627 36.1667C47.0087 36.159 46.8588 36.1474 46.7049 36.132C46.5509 36.1165 46.4167 36.0933 46.3023 36.0662V29.8786C46.5273 29.8438 46.7917 29.8129 47.0916 29.7897C47.3916 29.7665 47.7191 29.7549 48.0743 29.7549C48.3111 29.7549 48.5558 29.7743 48.8045 29.8129C49.0531 29.8516 49.2781 29.925 49.4794 30.0371C49.6806 30.1491 49.8464 30.3037 49.9806 30.5008C50.1108 30.698 50.1779 30.953 50.1779 31.2661L50.17 31.2545ZM52.0565 29.8168H55.5493V30.4815H52.8143V32.5376H55.3165V33.2024H52.8143V35.4401H55.5927V36.1049H52.0526V29.8168H52.0565ZM58.9395 30.3926C58.7817 30.3926 58.6277 30.3926 58.4817 30.4004C58.3357 30.4081 58.2173 30.4197 58.1344 30.4467V33.0517C58.166 33.0633 58.2133 33.071 58.2804 33.0748C58.3475 33.0748 58.4186 33.0826 58.4896 33.0826C58.5646 33.0826 58.6317 33.0864 58.6988 33.0864H58.8448C59.054 33.0864 59.2592 33.0671 59.4644 33.0285C59.6697 32.9898 59.8551 32.9203 60.0209 32.8159C60.1867 32.7154 60.3209 32.5685 60.4195 32.383C60.5221 32.1975 60.5695 31.9618 60.5695 31.6719C60.5695 31.4246 60.5221 31.2197 60.4274 31.0574C60.3327 30.8912 60.2064 30.7598 60.0525 30.6632C59.8986 30.5627 59.721 30.4931 59.5236 30.4506C59.3263 30.4081 59.1329 30.3888 58.9356 30.3888L58.9395 30.3926ZM57.3727 29.8825C57.6055 29.8284 57.8542 29.7936 58.1265 29.7743C58.3949 29.7549 58.6633 29.7472 58.9237 29.7472C59.2039 29.7472 59.4921 29.7743 59.7802 29.8284C60.0722 29.8825 60.3366 29.9791 60.5734 30.126C60.8102 30.269 61.0076 30.4661 61.1576 30.7173C61.3075 30.9685 61.3825 31.2893 61.3825 31.6796C61.3825 32.07 61.3115 32.3869 61.1733 32.6497C61.0313 32.9125 60.8458 33.129 60.6129 33.2913C60.3801 33.4575 60.1156 33.5734 59.8157 33.6468C59.5157 33.7203 59.2079 33.7551 58.8882 33.7551H58.7382C58.6672 33.7551 58.5962 33.7551 58.5172 33.7512C58.4422 33.7512 58.3673 33.7435 58.2923 33.7396C58.2173 33.7319 58.166 33.728 58.1344 33.7203V36.1088H57.3727V29.8863V29.8825ZM66.8526 35.8459C66.671 35.9851 66.4382 36.0778 66.154 36.132C65.8738 36.1861 65.5739 36.2131 65.2542 36.2131C64.8674 36.2131 64.5083 36.1474 64.1728 36.0199C63.8373 35.8923 63.5413 35.6952 63.2927 35.4324C63.0441 35.1696 62.8428 34.8334 62.6967 34.4237C62.5507 34.014 62.4757 33.527 62.4757 32.9628C62.4757 32.3985 62.5586 31.8767 62.7204 31.4671C62.8822 31.0574 63.0954 30.7211 63.3637 30.4622C63.6282 30.2033 63.9281 30.01 64.2596 29.8902C64.5912 29.7704 64.9266 29.7124 65.27 29.7124C65.637 29.7124 65.937 29.7317 66.1698 29.7704C66.4027 29.809 66.6 29.8631 66.7658 29.9289L66.5842 30.5859C66.2922 30.4467 65.8738 30.381 65.3292 30.381C65.0805 30.381 64.8319 30.4274 64.5872 30.5163C64.3425 30.6052 64.1254 30.7521 63.9321 30.9569C63.7387 31.1617 63.5848 31.4284 63.4703 31.7569C63.3558 32.0854 63.2966 32.4913 63.2966 32.9705C63.2966 33.4034 63.3519 33.7783 63.4624 34.1029C63.5729 34.4275 63.7229 34.6942 63.9163 34.9107C64.1097 35.1271 64.3346 35.2894 64.5951 35.3938C64.8556 35.502 65.1358 35.5561 65.4436 35.5561C65.7199 35.5561 65.9606 35.529 66.1619 35.4749C66.3671 35.4208 66.5408 35.3512 66.6789 35.2701L66.8605 35.8537L66.8526 35.8459ZM72.3069 31.8497L72.3621 31.1308H72.3266L71.9319 31.869L68.8338 36.1088H68.3839V29.8206H69.1456V34.13L69.0825 34.8411H69.118L69.5205 34.1029L72.6187 29.8206H73.0686V36.1088H72.3069V31.8497V31.8497ZM79.1741 30.4854H77.1731V36.1088H76.4114V30.4854H74.4105V29.8206H79.1701V30.4854H79.1741ZM80.5199 29.8206H84.0127V30.4854H81.2777V32.5415H83.7798V33.2063H81.2777V35.444H84.0561V36.1088H80.5159V29.8206H80.5199ZM89.9801 30.4854H87.9791V36.1088H87.2174V30.4854H85.2164V29.8206H89.9761V30.4854H89.9801ZM20.1714 1.40619H0.536747V16.4134V16.4405V16.6105V16.6763V16.7033C0.536747 17.6888 0.820907 18.6898 1.33003 19.629C1.85099 20.5914 2.61269 21.4957 3.55595 22.261C4.46763 23.003 5.54901 23.6214 6.74091 24.0427C7.85781 24.4369 9.07733 24.661 10.3521 24.661H10.4942C11.7769 24.6456 13.0003 24.3866 14.1251 23.9538C15.3367 23.4861 16.43 22.8175 17.3456 22.0291C18.2257 21.2677 18.9401 20.3904 19.4294 19.4821C19.9109 18.5894 20.1754 17.6618 20.1754 16.7729C20.1754 16.7342 20.1754 16.7265 20.1754 16.7226V16.711V16.6453V16.4482V16.4212V1.40619H20.1714ZM16.3471 13.9399C17.831 13.3525 19.2084 12.3669 19.5202 9.91275C19.2282 11.1224 18.5849 11.7949 17.7797 12.166C16.9194 12.564 15.8695 12.6181 14.8631 12.6297C15.542 12.9157 15.9998 13.3293 16.3431 13.9399H16.3471ZM8.63136 3.54733H9.18389V3.67873H9.35755V4.1C9.24704 4.14638 9.16811 4.25459 9.16811 4.37827C9.16811 4.51354 9.25493 4.62562 9.38123 4.66427H9.38517H9.38912H9.39307H9.40096C9.57067 4.66427 9.7088 4.529 9.7088 4.36281V4.35508V4.34349C9.7088 4.34349 9.7088 4.33576 9.7088 4.33189V4.32416C9.7088 4.32416 9.7088 4.31257 9.7088 4.30484V4.29711V4.28551V4.28165V4.27392C9.69301 4.22368 9.66933 4.18503 9.63381 4.15024V4.14638V4.14251V4.13865H9.62987V4.13478C9.62987 4.13478 9.62197 4.13092 9.61803 4.12705H9.61408C9.61408 4.12705 9.60619 4.12319 9.60224 4.11932C9.60224 4.11932 9.59435 4.11546 9.5904 4.1116H9.58645H9.58251V4.0343C9.58251 3.78695 9.80747 3.45843 10.0601 3.45457L10.5297 3.44297L9.85877 5.1667L7.93675 5.17443L7.26581 3.4507L7.71179 3.45843C7.96437 3.45843 8.18933 3.79081 8.18933 4.03816V4.11546C8.12619 4.14251 8.07488 4.19276 8.04331 4.25073V4.2546V4.26232V4.27392V4.28165V4.28938C8.04331 4.28938 8.03541 4.31257 8.03541 4.32416C8.03541 4.33189 8.03541 4.34349 8.03147 4.35508C8.03147 4.35508 8.03147 4.36668 8.03147 4.37054V4.37827V4.386C8.03147 4.55219 8.1696 4.68746 8.33931 4.68746H8.3472H8.35509H8.36693C8.49717 4.65268 8.59189 4.53673 8.59189 4.39759C8.59189 4.27005 8.51296 4.1657 8.40245 4.11932V3.69806H8.57611V3.56665L8.63136 3.54733ZM7.13952 6.53486C7.20661 6.61989 7.26187 6.71265 7.30133 6.80927C8.21696 6.97159 9.91008 8.00351 9.34571 6.53486H7.13952V6.53486ZM7.23424 6.86724C6.60672 6.5194 6.33835 7.0257 5.71872 7.14937C5.03595 7.28851 4.8544 6.76675 4.56235 6.29911C5.04384 6.39959 5.07147 6.61989 5.69899 6.19862C6.16075 5.88943 6.74485 6.0904 7.08427 6.47302L6.70539 5.47203C7.83808 5.4643 9.11285 5.31743 10.2337 5.47203L10.3758 5.49521C11.5716 5.72711 12.4754 6.7281 12.4754 7.99578C12.4754 8.92334 11.9347 9.95526 11.1375 10.5041V10.62C12.1991 10.3804 13.4147 9.5108 13.5213 9.01997C13.3674 8.96199 12.9924 8.74943 12.9964 8.72624C12.582 8.43251 12.4004 7.85278 12.4991 7.41218C12.5978 6.97159 12.8069 6.75902 13.1069 6.58124C13.3121 6.48075 13.4976 6.41892 13.7226 6.39573L19.311 5.62276C19.3387 5.80827 19.3545 5.99765 19.3663 6.18316C19.5281 9.53013 16.8878 12.3747 13.47 12.5331C12.3018 12.5872 10.7941 11.9534 10.2613 10.8712C10.2337 10.8751 10.2061 10.879 10.1785 10.8828C9.97717 10.906 9.78773 10.9369 9.61013 10.9833C9.43253 11.7099 10.952 12.278 12.7162 12.5524L12.432 12.9544C12.7635 12.85 13.1187 12.7959 13.4897 12.7959C15.4275 12.7959 16.9983 14.3341 16.9983 16.2318C16.9983 18.1294 15.4275 19.6677 13.4897 19.6677C11.5519 19.6677 9.98112 18.1294 9.98112 16.2318C9.98112 16.0385 9.99691 15.8453 10.0285 15.6598L10.1469 15.6753L12.2702 15.8183C12.1636 15.9883 12.1044 16.1854 12.1044 16.398C12.1044 17.0125 12.6135 17.5111 13.2411 17.5111C13.8686 17.5111 14.3777 17.0125 14.3777 16.398C14.3777 15.7835 13.8844 15.3004 13.2687 15.2849V15.2733L13.1266 15.2888C13.1148 15.2888 13.099 15.2888 13.0871 15.2926L11.2559 15.5013C10.4587 15.6289 9.76405 15.683 9.176 15.6637L6.64619 19.0454L6.33045 18.2261C4.54261 18.0792 5.16224 18.8908 5.56085 19.2232C5.60032 19.2541 5.60032 19.3894 5.56085 19.4203C4.90176 19.3701 4.32949 18.856 4.32949 18.1835C4.32949 17.5111 4.90176 16.9352 5.60427 16.9352C6.07392 16.9352 6.48437 17.1825 6.70539 17.5536L7.85387 14.0056H7.67232L6.97771 14.9834C6.56725 14.5622 6.24757 14.0597 6.05024 13.4993L4.10848 11.1456C4.0256 11.3273 3.89931 11.4857 3.74539 11.6094L3.35861 10.6046C2.49824 10.562 1.96939 10.7669 2.41536 11.4046H2.60085L2.57717 11.0915H3.11787L3.03104 12.1969V12.2046V12.2239H2.66005V12.1505L2.63243 11.7949C2.14304 11.6249 1.67733 11.2423 1.67733 10.6393C1.67733 10.1756 2.00096 9.70405 2.45877 9.49921L2.21013 6.26046L1.60629 5.51067H2.62453C2.58507 5.09713 2.71531 4.64881 2.96395 4.28551C2.73899 4.32416 2.52981 4.44011 2.32853 4.76862C2.19435 4.05749 2.80608 3.14538 3.63488 3.28065C4.46763 3.41979 4.38869 3.18016 4.82677 2.86325C4.7952 3.12992 4.79125 3.39273 4.73205 3.62462C5.58848 3.71738 5.55296 3.40819 6.10155 3.00625C6.00288 3.84105 6.09365 4.68359 5.04779 4.92322C4.09269 5.13965 3.38229 4.5947 2.73109 5.51067H4.08875L3.48885 6.25659L3.24416 9.42191C3.44939 9.46829 3.63488 9.56878 3.7888 9.70018L5.33984 10.6123L5.67925 11.8452H5.83712C5.99893 9.78134 7.73547 8.15037 9.87061 8.0924L9.78773 7.88756L7.64075 7.89916L7.23424 6.85951V6.86724ZM12.8306 21.5692L12.8503 21.3952H12.8425L12.7714 21.546L12.5504 21.8281L12.4438 21.9054L12.582 21.8899H12.8346V21.5692H12.8306ZM13.3239 22.1064H13.0911V22.5122H12.8346V22.1064H12.1913V21.9518L12.8661 21.0435H13.095V21.8899H13.3279V22.1064H13.3239ZM10.877 21.7817C10.877 21.9518 10.8967 22.0832 10.9323 22.1759C10.9717 22.2687 11.0309 22.3151 11.1178 22.3151C11.2046 22.3151 11.2638 22.2726 11.3033 22.1875C11.3427 22.1025 11.3625 21.9672 11.3625 21.7817C11.3625 21.6117 11.3427 21.4841 11.3072 21.3914C11.2717 21.2986 11.2085 21.2522 11.1178 21.2522C11.027 21.2522 10.9717 21.2948 10.9323 21.3798C10.8928 21.4648 10.877 21.6001 10.877 21.7779V21.7817ZM10.6007 21.7817C10.6007 21.5266 10.6442 21.3373 10.7349 21.2136C10.8257 21.0899 10.952 21.0281 11.1217 21.0281C11.2993 21.0281 11.4335 21.0899 11.5164 21.2136C11.5993 21.3373 11.6427 21.5266 11.6427 21.7856C11.6427 22.0445 11.5993 22.2339 11.5085 22.3576C11.4177 22.4813 11.2914 22.547 11.1217 22.547C10.9441 22.547 10.8139 22.4813 10.731 22.3499C10.6481 22.2185 10.6047 22.0291 10.6047 21.7856L10.6007 21.7817ZM9.31413 21.4146C9.31413 21.4494 9.32203 21.4764 9.33387 21.5035C9.34571 21.5266 9.36544 21.5498 9.38517 21.5692C9.40885 21.5885 9.43253 21.6039 9.46016 21.6194C9.48779 21.6349 9.51541 21.6503 9.54699 21.6658C9.63381 21.5962 9.67328 21.5189 9.67328 21.4339C9.67328 21.3759 9.65749 21.3295 9.62197 21.3025C9.58645 21.2716 9.54699 21.2561 9.49568 21.2561C9.43253 21.2561 9.38912 21.2716 9.35755 21.3025C9.32992 21.3334 9.31413 21.3721 9.31413 21.4146V21.4146ZM9.70091 22.1296C9.70091 22.0986 9.69301 22.0677 9.67723 22.0407C9.66144 22.0136 9.64171 21.9904 9.61803 21.9672C9.59435 21.9441 9.56672 21.9247 9.53515 21.9093C9.50357 21.8899 9.472 21.8745 9.44437 21.859C9.37728 21.8977 9.33387 21.9363 9.30624 21.9827C9.28256 22.0252 9.27072 22.0716 9.27072 22.1141C9.27072 22.1682 9.29045 22.2185 9.32992 22.2571C9.36939 22.2958 9.42464 22.3151 9.49173 22.3151C9.55488 22.3151 9.60619 22.2996 9.64565 22.2687C9.68512 22.2378 9.70485 22.1914 9.70485 22.1296H9.70091ZM9.01419 22.1566C9.01419 22.1064 9.02208 22.0639 9.03392 22.0252C9.04576 21.9866 9.06549 21.9518 9.08917 21.9209C9.11285 21.8899 9.14048 21.8629 9.17205 21.8358C9.20363 21.8126 9.23915 21.7895 9.27467 21.7663C9.20363 21.7238 9.15232 21.6735 9.10891 21.6155C9.06944 21.5576 9.04971 21.488 9.04971 21.4068C9.04971 21.3527 9.06155 21.3025 9.08128 21.2561C9.10101 21.2097 9.13259 21.1672 9.17205 21.1324C9.21152 21.0976 9.25888 21.0706 9.31413 21.0513C9.36939 21.0319 9.43253 21.0204 9.49963 21.0204C9.56277 21.0204 9.62197 21.0281 9.67328 21.0435C9.72459 21.059 9.77195 21.0822 9.80747 21.1131C9.84693 21.144 9.87456 21.1827 9.89429 21.2252C9.91403 21.2677 9.92587 21.3179 9.92587 21.3721C9.92587 21.4532 9.90613 21.5228 9.87061 21.5808C9.83115 21.6387 9.77984 21.689 9.70485 21.7354C9.79168 21.7856 9.85483 21.8358 9.89824 21.8977C9.94165 21.9556 9.96139 22.0329 9.96139 22.1218C9.96139 22.1837 9.94955 22.2416 9.92587 22.2919C9.90219 22.3421 9.87061 22.3846 9.8272 22.4233C9.78379 22.4581 9.73248 22.489 9.67328 22.5083C9.61408 22.5276 9.54699 22.5392 9.47595 22.5392C9.40491 22.5392 9.34176 22.5315 9.28256 22.5122C9.22336 22.4929 9.176 22.4658 9.13653 22.4349C9.09707 22.4001 9.06549 22.3615 9.04181 22.3151C9.01813 22.2687 9.01024 22.2146 9.01024 22.1566H9.01419ZM7.46709 22.2842H7.76309V21.4609L7.79467 21.3179L7.69205 21.4416L7.50261 21.5692L7.38421 21.4146L7.86965 21.0319H8.02357V22.288H8.31168V22.5161H7.46315V22.288L7.46709 22.2842ZM0.268373 0.880573H20.7082V16.7458V16.7651V16.8154V16.9391C20.6766 17.8782 20.3806 18.8444 19.8754 19.772C19.3545 20.7228 18.6125 21.6271 17.7008 22.4194C16.7418 23.2504 15.5933 23.9538 14.3185 24.4408C13.1385 24.8929 11.8479 25.1635 10.5021 25.1828H10.3561C9.01813 25.1828 7.73941 24.947 6.56331 24.5296C5.30827 24.0852 4.17557 23.4398 3.21653 22.6591C2.2496 21.8706 1.46027 20.9469 0.907733 19.9537C0.36704 18.9913 0.04736 17.9632 0.00394667 16.9391H0V0.880573H0.268373ZM30.0854 6.32616H29.5842V10.4036H27.674V0.857384H29.5842V5.08554L30.0302 4.89616L32.7179 0.857384H34.8925L32.0509 4.86911L31.2971 5.387L32.0785 5.92035L35.3227 10.4075H32.9705L30.0854 6.33002V6.32616Z" fill="white"/>
</svg>
