<svg width="20" height="25" viewBox="0 0 20 25" fill="none" xmlns="http://www.w3.org/2000/svg">
<path fill-rule="evenodd" clip-rule="evenodd" d="M8.35788 2.06821C6.60937 2.49447 4.94462 3.61443 4.18612 5.71769C3.54783 7.48765 3.45599 9.04419 3.37633 10.3943C3.35123 10.8199 3.32733 11.225 3.28791 11.6097C3.12338 13.2157 2.70211 14.8868 0.832074 17.2106C0.0513484 18.1808 0.662514 19.7687 2.03788 19.7687H9.91946H10.471H18.3526C19.728 19.7687 20.3391 18.1808 19.5584 17.2106C17.6884 14.8868 17.2671 13.2157 17.1026 11.6097C17.0632 11.225 17.0393 10.82 17.0142 10.3945L17.0142 10.3944L17.0142 10.3943C16.9345 9.04419 16.8427 7.48765 16.2044 5.71769C15.449 3.62308 13.7948 2.5037 12.0542 2.07351V1.93938C12.0542 0.87631 11.1429 0.156769 10.2019 0.156769C9.26092 0.156769 8.34965 0.87631 8.34965 1.93938C8.34965 1.98303 8.35245 2.02603 8.35788 2.06821ZM10.1952 3.85657C10.1595 3.86044 10.1232 3.86243 10.0864 3.86243C8.34982 3.8625 6.70047 4.64105 6.06752 6.39618C5.53578 7.87067 5.46599 9.03779 5.38931 10.3202C5.36092 10.795 5.33158 11.2857 5.27749 11.8136C5.09524 13.5925 4.62065 15.4476 2.92459 17.7687H9.91946H10.471H17.4659C15.7698 15.4476 15.2953 13.5925 15.113 11.8136C15.0589 11.2857 15.0296 10.795 15.0012 10.3202C14.9245 9.03779 14.8547 7.87067 14.323 6.39618C13.69 4.64105 12.0407 3.8625 10.3041 3.86243C10.2673 3.86243 10.231 3.86044 10.1952 3.85657ZM8.12402 20.5785C8.67631 20.5785 9.12402 21.0262 9.12402 21.5785C9.12402 21.9996 9.52299 22.4832 10.1982 22.4832C10.8735 22.4832 11.2725 21.9996 11.2725 21.5785C11.2725 21.0262 11.7202 20.5785 12.2725 20.5785C12.8248 20.5785 13.2725 21.0262 13.2725 21.5785C13.2725 23.2613 11.8141 24.4832 10.1982 24.4832C8.58238 24.4832 7.12402 23.2613 7.12402 21.5785C7.12402 21.0262 7.57174 20.5785 8.12402 20.5785Z" fill="white"/>
</svg>
