<svg width="28" height="27" viewBox="0 0 28 27" fill="none" xmlns="http://www.w3.org/2000/svg">
<path d="M14.2591 10.0819C15.1432 10.0819 15.991 10.4273 16.6161 11.0422C17.2413 11.6571 17.5924 12.491 17.5924 13.3606C17.5924 14.2301 17.2413 15.0641 16.6161 15.6789C15.991 16.2938 15.1432 16.6393 14.2591 16.6393C13.3751 16.6393 12.5272 16.2938 11.9021 15.6789C11.277 15.0641 10.9258 14.2301 10.9258 13.3606C10.9258 12.491 11.277 11.6571 11.9021 11.0422C12.5272 10.4273 13.3751 10.0819 14.2591 10.0819V10.0819Z" stroke="#FEFEFE" stroke-width="2" stroke-miterlimit="10" stroke-linecap="round" stroke-linejoin="round"/>
<path d="M3.14844 12.3983V14.3218C3.14844 15.4584 4.09288 16.3983 5.25955 16.3983C7.27066 16.3983 8.09288 17.7972 7.08177 19.5131C6.50399 20.4967 6.84844 21.7754 7.85955 22.3437L9.78177 23.4257C10.6595 23.9393 11.7929 23.6333 12.3151 22.7699L12.4373 22.5623C13.4373 20.8464 15.0818 20.8464 16.0929 22.5623L16.2151 22.7699C16.7373 23.6333 17.8707 23.9393 18.7484 23.4257L20.6707 22.3437C21.6818 21.7754 22.0262 20.4967 21.4484 19.5131C20.4373 17.7972 21.2595 16.3983 23.2706 16.3983C24.4262 16.3983 25.3818 15.4694 25.3818 14.3218V12.3983C25.3818 11.2617 24.4373 10.3218 23.2706 10.3218C21.2595 10.3218 20.4373 8.92293 21.4484 7.20709C22.0262 6.21255 21.6818 4.94479 20.6707 4.37649L18.7484 3.29452C17.8707 2.78086 16.7373 3.08687 16.2151 3.95025L16.0929 4.15791C15.0929 5.87375 13.4484 5.87375 12.4373 4.15791L12.3151 3.95025C11.7929 3.08687 10.6595 2.78086 9.78177 3.29452L7.85955 4.37649C7.37521 4.65079 7.0213 5.10289 6.87549 5.63357C6.72967 6.16425 6.80386 6.73015 7.08177 7.20709C8.09288 8.92293 7.27066 10.3218 5.25955 10.3218C4.09288 10.3218 3.14844 11.2617 3.14844 12.3983V12.3983Z" stroke="#FEFEFE" stroke-width="2" stroke-miterlimit="10" stroke-linecap="round" stroke-linejoin="round"/>
</svg>
