<svg width="25" height="25" viewBox="0 0 25 25" fill="none" xmlns="http://www.w3.org/2000/svg">
<mask id="mask0_1304_9626" style="mask-type:alpha" maskUnits="userSpaceOnUse" x="0" y="0" width="25" height="25">
<path d="M23.8337 12.3606C23.8337 18.3827 18.8654 23.2951 12.6988 23.2951C6.53214 23.2951 1.56389 18.3827 1.56389 12.3606C1.56389 6.33853 6.53214 1.4261 12.6988 1.4261C18.8654 1.4261 23.8337 6.33853 23.8337 12.3606Z" fill="white" stroke="white" stroke-width="2.17466"/>
</mask>
<g mask="url(#mask0_1304_9626)">
<path d="M17.1467 11.0207C17.1467 12.7121 16.8403 14.0566 15.9213 15.2757C15.26 16.1527 14.0832 17.0972 12.7023 17.0972C11.3991 17.0972 10.2953 16.3696 9.48319 15.2757C8.76353 14.3023 8.25781 12.7459 8.25781 11.3291C8.25781 9.75341 8.61765 8.38006 9.48319 7.38258C10.2758 6.46701 11.5255 6.16825 12.7023 6.16825C13.879 6.16825 15.0995 6.57303 15.9213 7.38258C16.534 7.98974 17.1467 9.392 17.1467 11.0256V11.0207Z" stroke="white" stroke-width="2" stroke-linecap="round" stroke-linejoin="round"/>
<path d="M22.0908 21.9296V23.9442C22.0908 24.5762 21.5591 25.0897 20.8967 25.0897H4.50657C3.84852 25.0897 3.3125 24.5762 3.3125 23.9442V21.9296C3.3125 18.4578 5.88367 15.5654 9.29592 14.9158C9.41358 15.1353 9.54432 15.3372 9.67941 15.5171C10.442 16.5134 11.4792 17.1762 12.7038 17.1762C13.9981 17.1762 15.105 16.3115 15.7282 15.5171C15.8807 15.324 16.0158 15.1221 16.1291 14.9202C19.5327 15.5786 22.0951 18.4666 22.0951 21.934L22.0908 21.9296Z" stroke="white" stroke-width="2" stroke-linecap="round" stroke-linejoin="round"/>
<path d="M23.921 12.3606C23.921 18.4323 18.9123 23.3825 12.6988 23.3825C6.48527 23.3825 1.47656 18.4323 1.47656 12.3606C1.47656 6.28894 6.48527 1.33878 12.6988 1.33878C18.9123 1.33878 23.921 6.28894 23.921 12.3606Z" stroke="white" stroke-width="2"/>
</g>
</svg>
